<svg width="1200" height="700" viewBox="0 0 1200 700" fill="none" xmlns="http://www.w3.org/2000/svg">
  <defs>
    <linearGradient id="bg" x1="70" y1="40" x2="1130" y2="660" gradientUnits="userSpaceOnUse">
      <stop stop-color="#38BDF8" stop-opacity="0.18"/>
      <stop offset="0.55" stop-color="#A855F7" stop-opacity="0.14"/>
      <stop offset="1" stop-color="#22C55E" stop-opacity="0.10"/>
    </linearGradient>
    <linearGradient id="stroke" x1="140" y1="120" x2="1060" y2="580" gradientUnits="userSpaceOnUse">
      <stop stop-color="#FFFFFF" stop-opacity="0.20"/>
      <stop offset="1" stop-color="#FFFFFF" stop-opacity="0.07"/>
    </linearGradient>
  </defs>
  <rect x="40" y="40" width="1120" height="620" rx="36" fill="url(#bg)" stroke="url(#stroke)" stroke-width="2"/>
  <g opacity="0.9">
    <circle cx="220" cy="190" r="54" fill="#0B1020" fill-opacity="0.55" stroke="white" stroke-opacity="0.10"/>
    <circle cx="330" cy="190" r="54" fill="#0B1020" fill-opacity="0.55" stroke="white" stroke-opacity="0.10"/>
    <circle cx="275" cy="280" r="54" fill="#0B1020" fill-opacity="0.55" stroke="white" stroke-opacity="0.10"/>
    <path d="M220 190L330 190" stroke="white" stroke-opacity="0.18" stroke-width="3" stroke-linecap="round"/>
    <path d="M220 190L275 280" stroke="white" stroke-opacity="0.18" stroke-width="3" stroke-linecap="round"/>
    <path d="M330 190L275 280" stroke="white" stroke-opacity="0.18" stroke-width="3" stroke-linecap="round"/>
  </g>
  <g opacity="0.85">
    <rect x="520" y="170" width="510" height="90" rx="22" fill="#0B1020" fill-opacity="0.45" stroke="white" stroke-opacity="0.10"/>
    <rect x="520" y="285" width="510" height="90" rx="22" fill="#0B1020" fill-opacity="0.45" stroke="white" stroke-opacity="0.10"/>
    <rect x="520" y="400" width="510" height="90" rx="22" fill="#0B1020" fill-opacity="0.45" stroke="white" stroke-opacity="0.10"/>
    <path d="M452 235H520" stroke="white" stroke-opacity="0.16" stroke-width="3" stroke-linecap="round"/>
    <path d="M452 350H520" stroke="white" stroke-opacity="0.16" stroke-width="3" stroke-linecap="round"/>
    <path d="M452 465H520" stroke="white" stroke-opacity="0.16" stroke-width="3" stroke-linecap="round"/>
  </g>
  <text x="90" y="605" fill="white" fill-opacity="0.22" font-family="Inter, system-ui" font-size="18">EKS " GitOps " Progressive Delivery " Observability</text>
</svg>

